<?xml version="1.0" encoding="UTF-8" standalone="no"?>
<!-- Created with Inkscape (http://www.inkscape.org/) -->

<svg
   xmlns:osb="http://www.openswatchbook.org/uri/2009/osb"
   xmlns:dc="http://purl.org/dc/elements/1.1/"
   xmlns:cc="http://creativecommons.org/ns#"
   xmlns:rdf="http://www.w3.org/1999/02/22-rdf-syntax-ns#"
   xmlns:svg="http://www.w3.org/2000/svg"
   xmlns="http://www.w3.org/2000/svg"
   xmlns:sodipodi="http://sodipodi.sourceforge.net/DTD/sodipodi-0.dtd"
   xmlns:inkscape="http://www.inkscape.org/namespaces/inkscape"
   id="svg7384"
   height="16"
   width="16"
   version="1.1"
   inkscape:version="0.48.4 r9939"
   sodipodi:docname="indicator-stocks-mono-light2.svg">
  <sodipodi:namedview
     pagecolor="#ffffff"
     bordercolor="#666666"
     borderopacity="1"
     objecttolerance="10"
     gridtolerance="10"
     guidetolerance="10"
     inkscape:pageopacity="0"
     inkscape:pageshadow="2"
     inkscape:window-width="1301"
     inkscape:window-height="744"
     id="namedview19"
     showgrid="false"
     inkscape:snap-nodes="true"
     inkscape:snap-page="true"
     inkscape:object-paths="true"
     inkscape:object-nodes="true"
     inkscape:snap-intersection-paths="true"
     inkscape:snap-grids="true"
     inkscape:snap-to-guides="true"
     inkscape:snap-midpoints="true"
     inkscape:snap-smooth-nodes="true"
     inkscape:snap-bbox="true"
     inkscape:bbox-paths="true"
     inkscape:bbox-nodes="true"
     inkscape:snap-bbox-edge-midpoints="true"
     inkscape:snap-bbox-midpoints="true"
     inkscape:zoom="32"
     inkscape:cx="4.625"
     inkscape:cy="7.7863289"
     inkscape:window-x="65"
     inkscape:window-y="24"
     inkscape:window-maximized="1"
     inkscape:current-layer="layer9" />
  <metadata
     id="metadata90">
    <rdf:RDF>
      <cc:Work
         rdf:about="">
        <dc:format>image/svg+xml</dc:format>
        <dc:type
           rdf:resource="http://purl.org/dc/dcmitype/StillImage" />
        <dc:title>Gnome Symbolic Icon Theme</dc:title>
      </cc:Work>
    </rdf:RDF>
  </metadata>
  <title
     id="title9167">Gnome Symbolic Icon Theme</title>
  <defs
     id="defs7386">
    <linearGradient
       id="linearGradient5284"
       osb:paint="solid">
      <stop
         style="stop-color:#300000;stop-opacity:0;"
         offset="0"
         id="stop5286" />
    </linearGradient>
    <clipPath
       id="clipPath6810-7-0-7"
       clipPathUnits="userSpaceOnUse">
      <rect
         id="rect6812-2-2-4"
         style="stroke-linejoin:round;color:#bebebe;stroke:#fff;stroke-linecap:round;stroke-width:2;fill:none"
         height="11"
         width="14"
         y="281"
         x="21" />
    </clipPath>
  </defs>
  <g
     id="layer9"
     transform="translate(-41 -177)">
    <path
       style="fill:#3c3c3c;fill-opacity:1;fill-rule:nonzero;stroke:none"
       id="path3062"
       d="m 56.416136,181.79416 c -0.0048,0.14598 0.03242,0.77571 -0.03085,0.8126 -0.06328,0.0369 -2.670614,0.14256 -2.674311,-0.10143 -0.01204,-1.28163 0.297146,-3.52703 0.372817,-4.13073 -0.551357,0.0123 -1.79112,0.0175 -2.292775,0.0763 -0.504412,0.0512 -0.908269,0.0427 -1.370694,0.0442 -0.265429,-0.15478 0.929152,-0.8473 1.191554,-0.90867 0.721627,-0.14184 1.433042,-0.27469 2.099355,-0.43351 1.129722,-0.21526 3.335725,-0.19959 3.288006,0.0235 -1.140245,1.95806 -3.729723,4.55012 -4.898586,6.2933 -0.487917,0.78761 -0.950446,1.62741 -1.355094,2.53992 -0.594043,1.60396 -0.894391,2.792 -1.286959,4.27441 -0.08493,0.11072 -2.39776,0.51744 -2.563278,-0.2323 -0.02166,-0.0981 -0.117268,-1.49459 -0.220978,-2.43331 -0.153721,-1.39142 -0.503035,-3.18794 -0.515834,-4.00551 0.151242,-0.48524 2.461711,-0.24104 2.484076,-0.21538 0.0526,0.0603 -0.05069,0.4524 -0.227192,0.96955 -0.176516,0.51714 -1.362048,2.8037 -2.049159,4.03544 -0.493649,0.88858 -0.98881,1.77616 -1.509018,2.62001 -0.313763,0.50124 -0.633468,0.99129 -0.962879,1.46264 -0.131359,0.18032 -0.264349,0.35693 -0.405508,0.51476 L 42.267999,192.80663 41,192.68111 c 0.156438,-0.16104 0.310223,-0.32824 0.460241,-0.50625 0.364155,-0.44461 0.707414,-0.93584 1.047008,-1.43283 0.549133,-0.81818 1.064779,-1.69881 1.568086,-2.59756 0.471863,-0.84629 0.902708,-1.74616 1.344022,-2.64646 0.326858,-0.6668 0.580793,-1.34028 0.730032,-1.8995 0.862276,-0.16682 2.289613,-0.22856 2.512919,-0.17914 -0.03515,0.29429 -0.06219,1.82444 -0.0348,2.56887 0.02521,0.68533 0.149756,1.24635 0.226034,1.71745 -0.413532,0.0403 -0.650005,0.09 -1.064713,0.27617 0.415163,-0.91996 0.723889,-1.93506 1.097679,-2.78161 0.267755,-0.61242 0.181983,-0.41751 0.459684,-1.03177 0.494278,-1.08467 1.060768,-2.06446 1.641256,-3.01406 0.30552,-0.49351 0.622583,-0.96727 0.962321,-1.39172 0.449526,-0.52292 0.942282,-1.06251 1.353273,-1.54321 0.347891,-0.48562 0.954955,-1.05556 1.077565,-1.08251 0.309305,-0.0679 2.593846,-0.076 2.616968,0.0147 0.02251,0.0884 -0.38525,1.5446 -0.481205,2.32229 -0.09596,0.77768 -0.101737,1.63488 -0.100235,2.32022 z"
       inkscape:connector-curvature="0"
       sodipodi:nodetypes="czcccccccccccscszcccccccccsccscccccccssccc" />
  </g>
</svg>
